<?xml version="1.0" encoding="utf-8"?>
<!-- Svg Vector Icons : http://www.onlinewebfonts.com/icon -->
<!DOCTYPE svg PUBLIC "-//W3C//DTD SVG 1.1//EN" "http://www.w3.org/Graphics/SVG/1.1/DTD/svg11.dtd">
<svg version="1.1" xmlns="http://www.w3.org/2000/svg" xmlns:xlink="http://www.w3.org/1999/xlink" x="0px" y="0px" viewBox="0 0 1000 1000" enable-background="new 0 0 1000 1000" xml:space="preserve">
<metadata> Svg Vector Icons : http://www.onlinewebfonts.com/icon </metadata>
<g><path d="M176.2,10v980h647.7V10H176.2z M813.4,955.9c-12,2.1-21.5,11.7-23.7,23.7h-78.3V811.6H577.7c-18.4-23.4-47.2-37.3-77.5-37.3c-30.3,0-59.2,14-77.5,37.3H288.7v167.8h-78.3c-2.1-12-11.7-21.4-23.7-23.7V505.2h214.5c2.7,51.9,46,93.1,98.7,93.1c52.8,0,96-41.4,98.7-93.1h214.5v450.6H813.4z M585.4,822.1h115.4v157.3H598.9v-56H401.1v56H299.2V822.1H585.4L585.4,822.1z M436.4,811.6c16.4-17,39.4-26.7,63.6-26.7c24.3,0,47.3,9.9,63.6,26.7H436.4L436.4,811.6z M588.4,979.4H411.6V934h176.9V979.4z M411.7,494.6C414.5,448.5,453,412,500,412c47,0,85.5,36.6,88.3,82.7H411.7L411.7,494.6z M588.3,505.2c-2.7,46.1-41.3,82.7-88.3,82.7c-47,0-85.5-36.6-88.3-82.7H588.3L588.3,505.2z M500,401.5c-52.8,0-96,41.4-98.7,93.1H186.8V44.1c12-2.1,21.5-11.7,23.7-23.7h78.3v167.8h133.8c18.4,23.4,47.2,37.3,77.5,37.3s59.2-14,77.5-37.3h133.9V20.5h78.3c2.1,12,11.7,21.4,23.7,23.7v450.6H598.9C596,442.9,552.8,401.5,500,401.5L500,401.5z M414.6,177.8H299.2V20.5h101.9v56H599v-56H701v157.3H414.6L414.6,177.8z M563.6,188.2c-16.4,17-39.4,26.7-63.6,26.7c-24.3,0-47.3-9.9-63.6-26.7H563.6L563.6,188.2z M411.6,20.5h176.9v45.4H411.6V20.5z M813.4,33.2c-6.2-1.8-11.1-6.7-12.9-12.7h12.9V33.2z M199.7,20.5c-1.8,6.2-6.7,11.1-12.9,12.7V20.5H199.7z M186.8,966.6c6.2,1.8,11.1,6.7,12.9,12.7h-12.9V966.6z M800.5,979.4c1.8-6.2,6.7-11.1,12.9-12.7v12.7H800.5z"/></g>
</svg>